<?xml version="1.0" encoding="utf-8"?>
<!-- Generator: Adobe Illustrator 25.4.1, SVG Export Plug-In . SVG Version: 6.00 Build 0)  -->
<svg version="1.1" id="Capa_1" xmlns="http://www.w3.org/2000/svg" xmlns:xlink="http://www.w3.org/1999/xlink" x="0px" y="0px"
	 viewBox="0 0 841.89 595.28" style="enable-background:new 0 0 841.89 595.28;" xml:space="preserve">
<style type="text/css">
	.st0{fill:none;}
	.st1{fill:#010202;}
	.st2{font-family:'KohinoorDevanagari-Regular';}
	.st3{font-size:36px;}
	.st4{fill:#FFFFFF;stroke:#000000;stroke-miterlimit:10;}
</style>
<g>
	<g>
		<rect x="308.05" y="193.31" class="st0" width="373.29" height="217.87"/>
		<text transform="matrix(1 0 0 1 308.0529 220.6292)"><tspan x="0" y="0" class="st1 st2 st3">POL_MULET</tspan><tspan x="0" y="43.2" class="st1 st2 st3">_DESENVOLUPADOR</tspan><tspan x="0" y="86.4" class="st1 st2 st3">D’APLICACIONS WEB</tspan></text>
		<g>
			<g>
				<rect x="160.54" y="184.1" class="st4" width="129.71" height="129.71"/>
			</g>
			<rect x="169.94" y="193.26" class="st0" width="112.92" height="65.09"/>
			<text transform="matrix(1 0 0 1 169.9408 220.5878)" class="st2 st3">P</text>
			<rect x="252.16" y="193.26" class="st0" width="112.92" height="65.09"/>
			<text transform="matrix(1 0 0 1 252.1588 220.5878)" class="st2 st3">M</text>
			<rect x="168.94" y="236.76" class="st0" width="112.92" height="65.09"/>
			<text transform="matrix(1 0 0 1 168.9408 264.0835)" class="st2 st3">D</text>
			<rect x="213.24" y="280.27" class="st0" width="112.92" height="65.09"/>
			<text transform="matrix(1 0 0 1 213.2436 307.5938)" class="st2 st3">A</text>
			<rect x="252.07" y="279.77" class="st0" width="112.92" height="65.09"/>
			<text transform="matrix(1 0 0 1 252.0672 307.0975)" class="st2 st3">W</text>
		</g>
		<rect x="213.24" y="193.26" class="st0" width="112.92" height="65.09"/>
		<text transform="matrix(1 0 0 1 213.2436 220.5877)" class="st1 st2 st3">_</text>
		<rect x="174.32" y="274.55" class="st0" width="112.92" height="65.09"/>
		<text transform="matrix(1 0 0 1 174.3175 301.8741)" class="st1 st2 st3">_</text>
		<rect x="213.24" y="236.76" class="st0" width="112.92" height="65.09"/>
		<text transform="matrix(1 0 0 1 213.2436 264.0835)" class="st1 st2 st3">&lt;</text>
		<rect x="258.97" y="236.76" class="st0" width="112.92" height="65.09"/>
		<text transform="matrix(1 0 0 1 258.9721 264.0835)" class="st1 st2 st3">&gt;</text>
	</g>
</g>
</svg>
